<svg width="216.24000854492186px" height="180.88001708984373px" xmlns="http://www.w3.org/2000/svg" viewBox="141.87999572753907 -15.440008544921866 216.24000854492186 180.88001708984373" style="background: rgba(0, 0, 0, 0) none repeat scroll 0% 0%;" preserveAspectRatio="xMidYMid"><defs><filter id="editing-vr"><feFlood flood-color="#f00" flood-opacity="0.7" result="c1"></feFlood><feFlood flood-color="#00f" flood-opacity="0.7" result="c3"></feFlood><feComposite operator="in" in="c1" in2="SourceAlpha" result="text-c1"></feComposite><feComposite operator="in" in="c3" in2="SourceAlpha" result="text-c3"></feComposite><feOffset in="text-c1" dx="2" dy="-1" result="text1"></feOffset><feOffset in="text-c3" dx="-2" dy="1" result="text3"></feOffset><feBlend in="SourceGraphic" in2="text1" mode="multiply" result="text4"></feBlend><feBlend in="text4" in2="text3" mode="multiply"></feBlend></filter></defs><g filter="url(#editing-vr)"><g transform="translate(180.7981414794922, 109.849609375)"><path d="M22.20 0L0.80 0L13-65.70L13-65.70Q22.90-66.80 37.35-66.80L37.35-66.80L37.35-66.80Q51.80-66.80 58.50-62.60L58.50-62.60L58.50-62.60Q65.20-58.40 65.20-49.95L65.20-49.95L65.20-49.95Q65.20-41.50 60.85-36.20L60.85-36.20L60.85-36.20Q56.50-30.90 49-29.20L49-29.20L49-29.20Q50.70-20.90 54.60-14.20L54.60-14.20L54.60-14.20Q58.20-7.90 62.40-5.90L62.40-5.90L62.40-5.90Q60.90-1.70 57.85 0.15L57.85 0.15L57.85 0.15Q54.80 2 50.45 2L50.45 2L50.45 2Q46.10 2 42.70-0.55L42.70-0.55L42.70-0.55Q39.30-3.10 36.60-7.80L36.60-7.80L36.60-7.80Q30.90-18 30.30-34.10L30.30-34.10L31-34.10L31-34.10Q38.40-34.30 42.10-38.15L42.10-38.15L42.10-38.15Q45.80-42 45.80-50.10L45.80-50.10L45.80-50.10Q45.80-60.20 37.30-60.60L37.30-60.60L35.10-60.60L35.10-60.60Q34.20-60.60 33.70-60.50L33.70-60.50L22.20 0ZM90.20 0L68.90 0L80.30-60.80L81.40-66L102.80-66L90.20 0ZM130.80-5.90L130.80-5.90L130.80-5.90Q128.10 2 117.70 2L117.70 2L117.70 2Q110.00 2 104.70-7.20L104.70-7.20L104.70-7.20Q99.30-16.40 98.30-31.40L98.30-31.40L98.30-31.40Q109.30-51.50 116.90-59.80L116.90-59.80L116.90-59.80Q124.20-67.70 131.80-67.70L131.80-67.70L131.80-67.70Q135.90-67.70 138.85-65.50L138.85-65.50L138.85-65.50Q141.80-63.30 142.50-59.80L142.50-59.80L142.50-59.80Q139.10-58.40 137.50-57.30L137.50-57.30L137.50-57.30Q133.50-54.30 128.10-47.60L128.10-47.60L119.00-36.70L119.00-36.70Q116.80-34.10 115.90-32.90L115.90-32.90L115.90-32.90Q117.40-24.50 121.90-16.20L121.90-16.20L121.90-16.20Q126.20-8.30 130.80-5.90Z" fill="#444"></path></g></g><style>text {
  font-size: 64px;
  font-family: Arial Black;
  dominant-baseline: central;
  text-anchor: middle;
}</style></svg>